<svg id="visual" xmlns="http://www.w3.org/2000/svg" xmlns:xlink="http://www.w3.org/1999/xlink" version="1.1" viewBox="0 0 900 54"><path d="M0 22L13.7 18.7C27.3 15.3 54.7 8.7 82 14.3C109.3 20 136.7 38 163.8 43.7C191 49.3 218 42.7 245.2 36.2C272.3 29.7 299.7 23.3 327 25.8C354.3 28.3 381.7 39.7 409 44.2C436.3 48.7 463.7 46.3 491 43C518.3 39.7 545.7 35.3 573 35.8C600.3 36.3 627.7 41.7 654.8 44.7C682 47.7 709 48.3 736.2 45.2C763.3 42 790.7 35 818 35.8C845.3 36.7 872.7 45.3 886.3 49.7L900 54L900 0L886.3 0C872.7 0 845.3 0 818 0C790.7 0 763.3 0 736.2 0C709 0 682 0 654.8 0C627.7 0 600.3 0 573 0C545.7 0 518.3 0 491 0C463.7 0 436.3 0 409 0C381.7 0 354.3 0 327 0C299.7 0 272.3 0 245.2 0C218 0 191 0 163.8 0C136.7 0 109.3 0 82 0C54.7 0 27.3 0 13.7 0L0 0Z" fill="#2a2148" stroke-linecap="round" stroke-linejoin="miter"/></svg>